<svg width="26" height="25" viewBox="0 0 26 25" fill="none" xmlns="http://www.w3.org/2000/svg">
<path d="M13.7244 1.37363L16.9644 7.85364C17.1444 8.03364 17.3244 8.21364 17.6844 8.39364L24.7044 9.47364C25.4244 9.65364 25.7844 10.5536 25.2444 11.0936L20.2044 16.1336C20.0244 16.3136 19.8444 16.6736 20.0244 16.8536L21.2844 23.8736C21.4644 24.5936 20.5644 25.1336 20.0244 24.7736L13.7244 21.5336C13.5444 21.3536 13.1844 21.3536 12.8244 21.5336L6.52439 24.7736C5.80439 25.1336 5.08439 24.5936 5.26439 23.8736L6.52439 16.8536C6.52439 16.4936 6.52439 16.3136 6.3444 16.1336L0.764395 10.7336C0.224395 10.1936 0.584394 9.29364 1.30439 9.29364L8.32439 8.21364C8.68439 8.21364 8.8644 8.03364 9.04439 7.67364L12.2844 1.19363C12.4644 0.653635 13.5444 0.653635 13.7244 1.37363Z" fill="url(#paint0_linear_18_2012)"/>
<defs>
<linearGradient id="paint0_linear_18_2012" x1="11.7443" y1="9.51465" x2="11.7443" y2="22.638" gradientUnits="userSpaceOnUse">
<stop stop-color="#FFC80B"/>
<stop offset="1" stop-color="#FF9924"/>
</linearGradient>
</defs>
</svg>
